<svg xmlns="http://www.w3.org/2000/svg" width="512" height="512" fill="#fff" viewBox="0 0 64 64"><path d="M48.668 42.137 41 40.22v-5.292c1.392-1.705 2.437-3.757 2.823-6.038 1.69-.439 2.654-2.184 3.012-3.66.047.001.088.004.137.004.867 0 1.916-.123 2.94-.542.007-.002.012-.007.019-.009a5.903 5.903 0 0 0 1.696-1.054C53.201 22.223 54 19.993 54 17 54 8.103 43.991 0 33 0c-7.538 0-10.382 3.197-11.443 5.363a4.61 4.61 0 0 0-1.141.681c-1.592 1.305-2.402 3.624-2.413 6.89v.004c-.001.022-.003.041-.003.062v8.709c-.492.334-1 .992-1 2.291 0 1.51.97 4.31 3.17 4.888.382 2.343 1.44 4.382 2.83 6.053v5.279l-7.668 1.918A10.98 10.98 0 0 0 7 52.808V63a1 1 0 1 0 2 0V52.808a8.986 8.986 0 0 1 6.817-8.731l7.981-1.995c1.126.766 4.488 2.831 7.996 2.91L39 47.693V63a1 1 0 1 0 2 0V47c0-.417-.259-.79-.649-.937l-4.629-1.736c2.061-.697 3.744-1.747 4.479-2.247l7.981 1.995A8.99 8.99 0 0 1 55 52.808V63a1 1 0 1 0 2 0V52.808c0-5.057-3.426-9.445-8.332-10.671zM25 36.934c1.983 1.643 4.204 2.678 6 2.971v3.022c-2.584-.333-5.058-1.823-6-2.45zm8 2.984c1.909-.283 4.086-1.336 6-2.951v3.51c-.942.627-3.416 2.117-6 2.45zM20.781 21.727a4.333 4.333 0 0 0-.781-.28v-1.178c.322-.468 1.025-.958 2.418-1.363a11.293 11.293 0 0 1-1.637 2.821zM20 17.722v-4.456C20.94 11.693 24.475 9 32 9s11.06 2.693 12 4.266v4.456C41.826 16.533 37.999 16 32 16s-9.826.533-12 1.722zm24 2.547v1.178a4.378 4.378 0 0 0-.783.28 11.138 11.138 0 0 1-1.636-2.822c1.393.405 2.097.896 2.419 1.364zm0 6.229v-2.921c.487-.242.802-.256.872-.218.02.011.128.175.128.641 0 .708-.374 1.847-1 2.498zM21.659 7.611a2.807 2.807 0 0 1 2.154-.629 1 1 0 1 0 .357-1.967C25.442 3.532 27.969 2 33 2c10.875 0 19 7.919 19 15 0 1.98-.397 3.496-1.171 4.535-.159-2.309-1.31-4.429-2.122-5.242a.999.999 0 1 0-1.414 1.414c.641.642 1.895 3.055 1.45 5.276a6.112 6.112 0 0 1-1.819.249c-.156-.801-.542-1.263-.925-1.523V13c0-.011-.006-.019-.006-.03-.002-.067-.024-.131-.04-.197-.016-.065-.024-.13-.051-.189-.005-.01-.003-.021-.008-.03a5.022 5.022 0 0 0-.493-.775c.777.057 1.348.19 1.358.193a1.001 1.001 0 0 0 .484-1.942c-.085-.021-1.97-.474-3.917-.162-.944-.644-2.152-1.255-3.639-1.748.745-.114 1.303-.12 1.314-.12A1 1 0 0 0 41 6c-.124 0-2.91.017-4.958 1.282A28.234 28.234 0 0 0 32 7c-.77 0-1.49.035-2.189.086a9.016 9.016 0 0 1 2.433-1.116 1 1 0 0 0-.487-1.94c-.151.038-3.536.915-5.147 3.484-2.842.579-4.902 1.578-6.309 2.627.273-1.137.726-2 1.358-2.53zm-2.531 15.748c.07-.039.384-.024.872.218v2.921c-.626-.651-1-1.79-1-2.498 0-.466.108-.63.128-.641zm2.872.027c.607-.688 2.01-2.501 2.658-4.952C26.426 18.168 28.807 18 32 18s5.574.168 7.342.434c.648 2.451 2.051 4.263 2.658 4.951V27c0 5.701-5.678 11-10 11-3.423 0-10-4.646-10-11z"/><path d="M18 57a1 1 0 0 0-1 1v5a1 1 0 1 0 2 0v-5a1 1 0 0 0-1-1zM46 57a1 1 0 0 0-1 1v5a1 1 0 1 0 2 0v-5a1 1 0 0 0-1-1z"/><circle cx="36" cy="50" r="1"/><circle cx="28" cy="50" r="1"/><circle cx="36" cy="56" r="1"/><circle cx="28" cy="56" r="1"/><circle cx="36" cy="62" r="1"/><circle cx="28" cy="62" r="1"/></svg>