<svg xmlns="http://www.w3.org/2000/svg" fill="#fff" viewBox="0 -32 512 512"><path d="M504.5 432.871h-24.563V254.836c13.954-2.45 24.047-11.621 24.047-22.883v-16.031c0-.93-.175-1.809-.48-2.629l.004-.008-23.57-62.851V111.71c0-8.555-6.961-15.516-15.516-15.516H47.582c-8.559 0-15.516 6.961-15.516 15.516v38.723L8.492 213.285l.008.008a7.443 7.443 0 0 0-.484 2.629v16.031c0 11.262 10.097 20.434 24.05 22.883V432.87H7.5c-4.14 0-7.5 3.36-7.5 7.5s3.36 7.5 7.5 7.5h497c4.14 0 7.5-3.36 7.5-7.5s-3.36-7.5-7.5-7.5zM95.16 391.758h81.195v41.113H95.16zm72.149-168.336h33.093v8.531c0 3.477-6.445 8.531-16.547 8.531-10.101 0-16.546-5.054-16.546-8.53zm24.046 31.414c6.602-1.16 12.336-3.824 16.547-7.504.176.152.348.309.528.453 0 .067-.012.133-.012.2v136.273c0 4.14 3.36 7.5 7.5 7.5H424.34c4.14 0 7.5-3.36 7.5-7.5V254.836c6.597-1.16 12.332-3.824 16.547-7.504 4.21 3.68 9.945 6.344 16.547 7.504V432.87H191.355zm105.243-22.883c0 3.477-6.45 8.531-16.547 8.531-10.102 0-16.551-5.054-16.551-8.53v-8.532h33.098zm-16.551 23.531c9.738 0 18.305-3.136 24.05-8.152 5.743 5.016 14.31 8.152 24.048 8.152 9.734 0 18.304-3.136 24.046-8.152 5.743 5.016 14.313 8.152 24.047 8.152 9.739 0 18.309-3.136 24.051-8.152 4.215 3.68 9.945 6.344 16.547 7.504v89.86H223.418V254.64c2.707.547 5.562.843 8.531.843 9.739 0 18.309-3.136 24.051-8.152 5.742 5.016 14.313 8.152 24.047 8.152zm64.644-23.53c0 3.476-6.445 8.53-16.546 8.53-10.102 0-16.547-5.054-16.547-8.53v-8.532h33.097v8.531zm48.098 0c0 3.476-6.445 8.53-16.547 8.53-10.101 0-16.547-5.054-16.547-8.53v-8.532h33.094zm48.098 0c0 3.476-6.446 8.53-16.547 8.53-10.102 0-16.55-5.054-16.55-8.53v-8.532h33.097zM223.418 359.694H416.84v17.063H223.418zM248.5 231.953c0 3.477-6.445 8.531-16.547 8.531s-16.55-5.054-16.55-8.53v-8.532H248.5zm240.484 0c0 3.477-6.449 8.531-16.546 8.531-10.102 0-16.551-5.054-16.551-8.53v-8.532h33.097zM47.582 111.195h416.84c.281 0 .516.23.516.516v32.578h-8.536a7.5 7.5 0 1 0 0 15h10.836l18.422 49.133H26.34l18.422-49.133h379.574c4.144 0 7.5-3.355 7.5-7.5a7.5 7.5 0 0 0-7.5-7.5H47.063v-32.578c0-.285.234-.516.519-.516zm71.629 112.227h33.094v8.531c0 3.477-6.446 8.531-16.547 8.531-10.102 0-16.547-5.054-16.547-8.53zm-31.55 17.062c-10.102 0-16.548-5.054-16.548-8.53v-8.532h33.098v8.531c0 3.477-6.45 8.531-16.55 8.531zm-64.645-8.53v-8.532h33.097v8.531c0 3.477-6.449 8.531-16.547 8.531-10.101 0-16.55-5.054-16.55-8.53zm24.047 22.882c6.601-1.16 12.335-3.824 16.55-7.504 4.211 3.68 9.946 6.344 16.547 7.504v81.328c0 4.14 3.36 7.5 7.5 7.5s7.5-3.36 7.5-7.5v-81.328c6.602-1.16 12.336-3.824 16.547-7.504 5.742 5.016 14.313 8.152 24.05 8.152 9.735 0 18.306-3.136 24.048-8.152 4.215 3.68 9.949 6.344 16.547 7.504v121.922H95.16v-8.531a7.5 7.5 0 1 0-15 0v64.644H47.063zM104.363 79.129c8.614 0 16.848-4.113 22.028-11.008a7.498 7.498 0 0 0-1.493-10.5 7.5 7.5 0 0 0-10.5 1.488 12.444 12.444 0 0 1-10.035 5.02c-6.918 0-12.543-5.625-12.543-12.54V27.54C91.82 20.625 97.445 15 104.363 15c3.985 0 7.645 1.832 10.04 5.027a7.499 7.499 0 1 0 12-9C121.222 4.121 112.983 0 104.362 0 89.176 0 76.82 12.355 76.82 27.543V51.59c0 15.183 12.356 27.539 27.543 27.539zM165.148 79.129c15.188 0 27.543-12.356 27.543-27.54V27.54C192.691 12.355 180.336 0 165.148 0c-15.183 0-27.539 12.355-27.539 27.54v24.05c0 15.183 12.356 27.539 27.54 27.539zm-12.539-51.59c0-6.914 5.625-12.539 12.54-12.539 6.917 0 12.542 5.625 12.542 12.54v24.05c0 6.914-5.625 12.539-12.543 12.539-6.914 0-12.539-5.625-12.539-12.54zM213.75 79.129c4.14 0 7.5-3.36 7.5-7.5V47.066h16.547a7.5 7.5 0 1 0 0-15H221.25V15h24.563c4.14 0 7.5-3.36 7.5-7.5s-3.36-7.5-7.5-7.5H213.75a7.5 7.5 0 0 0-7.5 7.5v64.129a7.5 7.5 0 0 0 7.5 7.5zM333.363 79.129h32.063a7.5 7.5 0 1 0 0-15h-24.563V47.066h16.547a7.5 7.5 0 0 0 7.5-7.5c0-4.144-3.355-7.5-7.5-7.5h-16.547V15h24.563a7.5 7.5 0 1 0 0-15h-32.063a7.5 7.5 0 0 0-7.5 7.5v64.129a7.5 7.5 0 0 0 7.5 7.5zM274.035 79.129a7.5 7.5 0 0 0 7.5-7.5V47.066h16.55c4.142 0 7.5-3.359 7.5-7.5a7.5 7.5 0 0 0-7.5-7.5h-16.55V15h24.567c4.14 0 7.5-3.36 7.5-7.5s-3.36-7.5-7.5-7.5h-32.067c-4.14 0-7.5 3.36-7.5 7.5v64.129c0 4.14 3.36 7.5 7.5 7.5zM393.61 79.129h32.066c4.14 0 7.5-3.36 7.5-7.5s-3.36-7.5-7.5-7.5h-24.567V47.066h16.547a7.5 7.5 0 0 0 7.5-7.5c0-4.144-3.355-7.5-7.5-7.5H401.11V15h24.567c4.14 0 7.5-3.36 7.5-7.5s-3.36-7.5-7.5-7.5h-32.067c-4.14 0-7.5 3.36-7.5 7.5v64.129c0 4.14 3.36 7.5 7.5 7.5zm0 0"/></svg>