<svg xmlns="http://www.w3.org/2000/svg" width="512" height="512" fill="#fff"><path d="M256 395.257a11.7 11.7 0 0 0 8.297-3.43v-.001l65.593-65.593c18.833-18.833 18.833-49.475 0-68.307-18.831-18.832-49.474-18.833-68.307 0L256 263.509l-5.583-5.583c-18.832-18.833-49.475-18.832-68.307 0-18.833 18.832-18.833 49.475 0 68.307l65.593 65.594a11.704 11.704 0 0 0 8.297 3.43zm-63.284-126.725c6.492-6.492 15.019-9.738 23.547-9.738s17.055 3.246 23.547 9.738l10.886 10.886a7.5 7.5 0 0 0 10.606 0l10.886-10.886c12.984-12.983 34.11-12.983 47.094 0 12.984 12.984 12.984 34.11 0 47.094L256 378.91l-63.284-63.284c-12.984-12.983-12.984-34.11 0-47.094z"/><path d="M91.99 307.577a7.5 7.5 0 1 0 14.918-1.565l-7.97-76.014h314.124L394.29 409.043h-49.908a7.5 7.5 0 0 0 0 15h48.335l-6.006 57.282A17.463 17.463 0 0 1 369.306 497H142.694a17.463 17.463 0 0 1-17.405-15.675l-6.006-57.282h192.412a7.5 7.5 0 0 0 0-15H117.711l-7.366-70.253a7.5 7.5 0 0 0-14.918 1.564l14.944 142.535A32.429 32.429 0 0 0 142.694 512h226.612a32.429 32.429 0 0 0 32.323-29.111l35.737-340.848h12.367c12.407 0 22.5-10.093 22.5-22.5V77.868c0-12.407-10.093-22.5-22.5-22.5h-24.986V22.5c0-12.407-10.093-22.5-22.5-22.5H109.753c-12.407 0-22.5 10.093-22.5 22.5v32.868H62.267c-12.407 0-22.5 10.093-22.5 22.5v41.674c0 12.407 10.093 22.5 22.5 22.5h12.367zm322.644-92.578H97.366l-7.649-72.957h332.568zm42.599-95.458c0 4.136-3.364 7.5-7.5 7.5H62.267c-4.136 0-7.5-3.364-7.5-7.5V77.868c0-4.136 3.364-7.5 7.5-7.5h83.097a7.5 7.5 0 0 0 0-15h-43.111V22.5c0-4.136 3.364-7.5 7.5-7.5h292.494c4.136 0 7.5 3.364 7.5 7.5v32.868H178.05a7.5 7.5 0 0 0 0 15h271.683c4.136 0 7.5 3.364 7.5 7.5z"/></svg>