<svg xmlns="http://www.w3.org/2000/svg" xml:space="preserve" width="512" height="512" fill="#fff" style="enable-background:new 0 0 512 512" viewBox="0 0 64 64"><path xmlns="http://www.w3.org/2000/svg" d="M42.502 64h-35a1 1 0 0 1-1-1L6.5 4.51A4.507 4.507 0 0 1 10.994 0H46a4.426 4.426 0 0 1 3.183 1.33A4.416 4.416 0 0 1 50.5 4.5V6a.997.997 0 0 1 .707.293L52.5 7.586l1.293-1.293a1 1 0 0 1 1.414 0l2 2A1 1 0 0 1 57.5 9v20.5A4.518 4.518 0 0 1 53 34a4.505 4.505 0 0 1-4.5-4.5v-25A2.517 2.517 0 0 0 46 2a2.502 2.502 0 0 0-2.5 2.5l.002 58.5a1 1 0 0 1-1 1Zm-34-2h33L41.5 4.5a4.479 4.479 0 0 1 .76-2.5H10.994A2.505 2.505 0 0 0 8.5 4.51ZM50.5 8.414V29.5A2.502 2.502 0 0 0 53 32a2.517 2.517 0 0 0 2.5-2.5V9.414l-1-1-1.293 1.293a1 1 0 0 1-1.414 0Z" data-original="#000000"/><path xmlns="http://www.w3.org/2000/svg" d="M53 34H42.501a1 1 0 0 1 0-2H53a1 1 0 0 1 0 2ZM38.5 41h-27a1 1 0 0 1 0-2h27a1 1 0 0 1 0 2ZM38.5 44h-3a1 1 0 0 1 0-2h3a1 1 0 0 1 0 2ZM38.498 47h-27a1 1 0 0 1 0-2h27a1 1 0 1 1 0 2ZM38.498 50h-3a1 1 0 0 1 0-2h3a1 1 0 1 1 0 2ZM38.5 56h-3a1 1 0 0 1 0-2h3a1 1 0 0 1 0 2ZM38.502 53H11.5a1 1 0 0 1 0-2h27.002a1 1 0 0 1 0 2ZM24.527 35a1 1 0 0 1-.857-.485 306.446 306.446 0 0 1-9.444-16.91l-.587-1.146A1 1 0 0 1 14.527 15h10a1 1 0 0 1 0 2h-8.362a304.752 304.752 0 0 0 8.331 14.997L32.828 17h-4.3a1 1 0 1 1 0-2h6a1 1 0 0 1 .873 1.485l-10 18a.998.998 0 0 1-.857.515Z" data-original="#000000"/><path xmlns="http://www.w3.org/2000/svg" d="M33.475 17a1 1 0 0 1-1-1 7.974 7.974 0 1 0-15.948 0 1 1 0 1 1-2 0 9.974 9.974 0 1 1 19.948 0 1 1 0 0 1-1 1Z" data-original="#000000"/><path xmlns="http://www.w3.org/2000/svg" d="M26.527 24a3.055 3.055 0 0 1-3-3.1V16a1 1 0 1 1 2 0v4.9a1.005 1.005 0 1 0 2 0V16a1 1 0 1 1 2 0v4.9a3.055 3.055 0 0 1-3 3.1ZM18.501 59h-7a1 1 0 1 1 0-2h7a1 1 0 0 1 0 2ZM28.501 59h-6a1 1 0 0 1 0-2h6a1 1 0 0 1 0 2Z" data-original="#000000"/></svg>